<?xml version="1.0" encoding="utf-8"?>
<!-- Generator: Adobe Illustrator 18.1.0, SVG Export Plug-In . SVG Version: 6.00 Build 0)  -->
<svg version="1.1" id="Layer_1" xmlns="http://www.w3.org/2000/svg" xmlns:xlink="http://www.w3.org/1999/xlink" x="0px" y="0px"
	 viewBox="0 165.9 612 460.3" enable-background="new 0 165.9 612 460.3" xml:space="preserve">
	 <defs>
		<linearGradient id="SVGID_1_" x1="0%" y1="0%" x2="0%" y2="100%">
			<stop offset="0%"   style="stop-color:#000000"/>
			<stop offset="100%" style="stop-color:#494949"/>
		</linearGradient>
	</defs>
	<rect y="165.9" fill="url(#SVGID_1_)" width="612" height="460.3"/>
	<g>
		<g>
			<path fill="#282828" d="M432.7,319.2v153.5c0,3.9-1.8,6.8-5.4,8.4c-1.3,0.7-2.5,1-3.4,1c-2.7,0-4.8-1-6.4-3l-56.9-56.9v23.8
				c0,11.2-4,20.8-12.1,28.7c-8.1,7.9-17.8,11.8-29,11.8h-99.5c-11.2,0-20.8-3.9-28.7-11.8c-7.9-7.9-11.8-17.5-11.8-28.7V346
				c0-11.2,3.9-20.8,11.8-28.7c7.9-7.9,17.5-11.8,28.7-11.8h99.5c11.2,0,20.8,3.9,29,11.8c8.1,7.9,12.1,17.5,12.1,28.7v23.8
				l56.9-56.9c1.6-2,3.8-3,6.4-3c1,0,2.1,0.3,3.4,1C430.8,312.5,432.7,315.3,432.7,319.2z"/>
		</g>
	</g>
</svg>
