<?xml version="1.0" encoding="utf-8"?>
<!-- Generator: Adobe Illustrator 19.0.0, SVG Export Plug-In . SVG Version: 6.00 Build 0)  -->
<svg version="1.1" id="Layer_1" xmlns="http://www.w3.org/2000/svg" xmlns:xlink="http://www.w3.org/1999/xlink" x="0px" y="0px"
	 width="612px" height="460.3px" viewBox="290 -214.3 612 460.3" style="enable-background:new 290 -214.3 612 460.3;"
	 xml:space="preserve">
<style type="text/css">
	.st0{fill:#F3F3F3;}
	.st1{fill:#E8E8E8;}
</style>
<rect x="290" y="-214.3" class="st0" width="612" height="460.3"/>
<g>
	<g>
		<path class="st1" d="M667.8-27.7v86.9c0,2.2-1,3.9-3.1,4.8c-0.7,0.4-1.4,0.6-1.9,0.6c-1.5,0-2.7-0.6-3.6-1.7L627,30.6v13.5
			c0,6.3-2.3,11.8-6.9,16.3c-4.6,4.5-10.1,6.7-16.4,6.7h-56.4c-6.3,0-11.8-2.2-16.3-6.7s-6.7-9.9-6.7-16.3v-56.6
			c0-6.3,2.2-11.8,6.7-16.3c4.5-4.5,9.9-6.7,16.3-6.7h56.4c6.3,0,11.8,2.2,16.4,6.7c4.6,4.5,6.9,9.9,6.9,16.3V1l32.2-32.2
			c0.9-1.1,2.2-1.7,3.6-1.7c0.6,0,1.2,0.2,1.9,0.6C666.7-31.5,667.8-29.9,667.8-27.7z"/>
	</g>
</g>
</svg>
